# xmcd
#
# Track frame offsets:
# 150
# 24778
# 42910
# 58806
# 80272
# 94306
# 111995
# 124938
# 139965
# 157117
# 175754
# 190013
# 211777
# 225949
# 247265
# 263127
# 283366
# 297707
# 314591
# 327797
#
# Disc length: 4601 seconds
#
#
# Revision: 0
# Processed by: cddbd v1.5.1PL2 Copyright (c) Steve Scherf et al.
# Submitted via: FreeRIP 2.944 
#
DISCID=2e11f714
DTITLE=Tamburaski Orkestar RNS - Vojvodjanske Zlatne Zice
DYEAR=1900
DGENRE=National Folk
TTITLE0=Vojvodino Pevaj Vojvodjanski
TTITLE1=Vojvodjanska Bajka
TTITLE2=Zelja
TTITLE3=Daljina
TTITLE4=Ne Uzdisi U Zagrljaju Mom
TTITLE5=Moj Komsija Iz Crepaje
TTITLE6=Jos Sam U Vojvodini
TTITLE7=Vetric Blag
TTITLE8=Becarska Himna
TTITLE9=Zelena Polja
TTITLE10=Tamburasu
TTITLE11=Dunavom Plove Svi Moji Snovi
TTITLE12=Noc Kraj Dunava
TTITLE13=Dunavski Begesari
TTITLE14=Dacu Ti San
TTITLE15=Na Kraj Sveta
TTITLE16=Stara Pesma
TTITLE17=Vojvodino Golubice Bela
TTITLE18=Na Salas Se Spremam Poci
TTITLE19=Pevaj Druze Evo Prilike
EXTD=
EXTT0=
EXTT1=
EXTT2=
EXTT3=
EXTT4=
EXTT5=
EXTT6=
EXTT7=
EXTT8=
EXTT9=
EXTT10=
EXTT11=
EXTT12=
EXTT13=
EXTT14=
EXTT15=
EXTT16=
EXTT17=
EXTT18=
EXTT19=
PLAYORDER=
